inDegrees=no
num_controls=7
num_derivatives=13
num_iterations=37
num_multipliers=7
num_parameters=0
num_slacks=7
num_states=26
objective=0.466937
objective_accelerations=0.064626
objective_balance=0.000724
objective_effort=0.017504
objective_height=0.375334
objective_ligament=0.008749
solver_duration=535.243314
status=Solve_Succeeded
success=true
DataType=double
version=3
OpenSimVersion=4.5
endheader
time	/jointset/ground_pelvis/pelvis_tilt/value	/jointset/ground_pelvis/pelvis_tx/value	/jointset/ground_pelvis/pelvis_ty/value	/jointset/hip_l/hip_flexion_l/value	/jointset/hip_l/hip_adduction_l/value	/jointset/hip_l/hip_rotation_l/value	/jointset/back/lumbar_extension/value	/jointset/patellofemoral_l/patellar_flexion_l/value	/jointset/knee_l/knee_flexion_l/value	/jointset/knee_l/knee_adduction_l/value	/jointset/knee_l/knee_rotation_l/value	/jointset/ankle_l/ankle_angle_l/value	/jointset/subtalar_l/subtalar_angle_l/value	/jointset/ground_pelvis/pelvis_tilt/speed	/jointset/ground_pelvis/pelvis_tx/speed	/jointset/ground_pelvis/pelvis_ty/speed	/jointset/hip_l/hip_flexion_l/speed	/jointset/hip_l/hip_adduction_l/speed	/jointset/hip_l/hip_rotation_l/speed	/jointset/back/lumbar_extension/speed	/jointset/patellofemoral_l/patellar_flexion_l/speed	/jointset/knee_l/knee_flexion_l/speed	/jointset/knee_l/knee_adduction_l/speed	/jointset/knee_l/knee_rotation_l/speed	/jointset/ankle_l/ankle_angle_l/speed	/jointset/subtalar_l/subtalar_angle_l/speed	/forceset/tau_hip_flexion_l	/forceset/tau_hip_adduction_l	/forceset/tau_hip_rotation_l	/forceset/tau_knee_flexion_l	/forceset/tau_ankle_angle_l	/forceset/tau_subtalar_angle_l	/forceset/tau_lumbar_extension	lambda_cid13_p0	lambda_cid13_p1	lambda_cid13_p2	lambda_cid13_p3	lambda_cid13_p4	lambda_cid13_p5	lambda_cid14_p0	/jointset/ground_pelvis/pelvis_tilt/accel	/jointset/ground_pelvis/pelvis_tx/accel	/jointset/ground_pelvis/pelvis_ty/accel	/jointset/hip_l/hip_flexion_l/accel	/jointset/hip_l/hip_adduction_l/accel	/jointset/hip_l/hip_rotation_l/accel	/jointset/back/lumbar_extension/accel	/jointset/patellofemoral_l/patellar_flexion_l/accel	/jointset/knee_l/knee_flexion_l/accel	/jointset/knee_l/knee_adduction_l/accel	/jointset/knee_l/knee_rotation_l/accel	/jointset/ankle_l/ankle_angle_l/accel	/jointset/subtalar_l/subtalar_angle_l/accel	gamma_cid13_p0	gamma_cid13_p1	gamma_cid13_p2	gamma_cid13_p3	gamma_cid13_p4	gamma_cid13_p5	gamma_cid14_p0
1	-0.4851053533734114	-0.02008138229161434	0.5931140979398221	1.74891395583	-0.3392904261828963	0.1166930389798806	-0.4362121226463298	1.481625894096454	1.481625894096494	0.07548030247591286	-0.174339464619102	0.3900155123612493	0.2344019739190013	-0.1435150452814753	0.004308766090063539	0.038814237871296	0.005646472085988387	-0.001926360054028387	-0.06937333556123224	-0.001327258447948692	-0.1686693473453994	-0.1686693473454064	0.003057706190137592	-0.001985799156571281	-0.04394779709248114	-0.02671733140210157	-0.2514946057244037	0.07911095049958228	-0.01753864843903671	-0.2812632852634496	0.0021740743733544	-0.01693163165424103	0.2151551545505202	-34.87668783377919	23.54768056225191	-15.55764009779124	3.001008731638035	-543.7703002133051	-28.23815144349868	-0.02412315279037813	1.595254058045901	0.2843611548314965	2.037128494658436	-6.874147467083029	-0.2471289446294508	-1.561223486152323	-0.105402628975766	-5.560232350204711	-5.560232350204793	-0.8083841681327895	-0.04033804713416982	-0.7355183778340205	-0.7677503888063039	-5.085106029354054e-10	-1.29792329631951e-07	-8.70804772749556e-08	-9.870901295389452e-09	-1.045559897249725e-08	-1.663459398515951e-07	7.964592845711183e-09
1.01	-0.4864619578625171	-0.02002405055471316	0.5936038289027584	1.748628305328721	-0.3393214007638766	0.1159244233468721	-0.4362288625040593	1.479661584635536	1.479661584635522	0.07546823756188316	-0.1743595721051452	0.3895391738555239	0.2340973355054741	-0.1278444288627959	0.007166740052173297	0.0591176308326732	-0.06271728758514306	-0.004260817542535125	-0.08426795297032942	-0.00193475523194873	-0.2241874861468653	-0.2241874861468677	-0.005541190931764962	-0.002021680196853168	-0.05133712507367096	-0.03420546546499036	-0.2520042292260549	0.07911052204767333	-0.01758019857748245	-0.2802504005071601	0.001757767405461908	-0.01682375861495656	0.2154893423149566	-34.96299120321849	23.46083324150727	-15.48084652802413	2.862157266229801	-543.6512901686259	-28.18162571725138	-0.02414339214605261	1.547179586560048	0.2878856609374632	2.02479310772679	-6.808597063887679	-0.2254251004194549	-1.441311278806248	-0.02552952141172584	-5.546847366877279	-5.546847366876443	-0.8962309529286695	0.01685957901721411	-0.7432305256518627	-0.7385732863959182	-2.751917273268031e-10	-1.63846987219405e-07	-1.064317500670787e-07	-1.826636900782584e-08	-1.498767384787495e-08	-1.971087773421566e-07	7.630984183845626e-09
1.02	-0.4876630133569038	-0.01993786504938334	0.5942961634774759	1.747660795861348	-0.339375484109643	0.1150093154576784	-0.4362490985932712	1.47714224524225	1.477142245242193	0.07536806598312885	-0.1743796238593039	0.3889884239665143	0.2337179700770436	-0.112405246332823	0.01007951977579377	0.07933496022808929	-0.1307253211266395	-0.006548113009353466	-0.09867178680014706	-0.002026504747891582	-0.2796753338187213	-0.2796753338187188	-0.01456362680207874	-0.001974652777439564	-0.05883007375047685	-0.04166273438251146	-0.2525138527277959	0.07911009359571236	-0.01762174871527376	-0.2792375157508441	0.001341460437566717	-0.01671588557576442	0.2158235300792823	-35.05228153753797	23.37180218076879	-15.40061271009045	2.716336662556294	-543.6404013793129	-28.13053775661866	-0.0241663671686869	1.548967280304622	0.29532230713363	2.019915781466213	-6.803002241156053	-0.2376965402917349	-1.463066770296425	-0.002253175363600719	-5.554174124282723	-5.554174124282728	-0.8930919178149558	-0.02375635519498942	-0.7562425169572342	-0.761577359732696	1.699525681721475e-09	-2.123292591542562e-07	-1.631537545178018e-07	-2.945352731586486e-08	-1.936602811480202e-08	-2.685679865284416e-07	1.343621553061574e-08
1.03	-0.4887101709013742	-0.01982221494306596	0.5951902245647104	1.746014437097601	-0.3394521998716535	0.1139526709735966	-0.4362683775218459	1.474068314112028	1.474068314112029	0.07517557181025342	-0.1743987896730438	0.3883622639989861	0.2332642286589075	-0.09699997444626692	0.01306591220872975	0.09946123721263292	-0.198541173394598	-0.008783666982999209	-0.1125956471483115	-0.001812152422218896	-0.3350932379899174	-0.3350932379899234	-0.02397488531622696	-0.001842648984101659	-0.0664144184035135	-0.04907043410523258	-0.2528318109197629	0.07916824407913042	-0.01762820654559145	-0.2779951190649311	0.0009308525544855318	-0.01659411734618694	0.2160226162341226	-35.11681866635689	23.26347859210635	-15.30711045943073	2.548304762119871	-543.337444530488	-28.05374202642995	-0.02419394772795726	1.540250773044253	0.3026011177755104	2.006575880989367	-6.770087743188477	-0.2147418102575821	-1.347830302348058	0.03584872057926371	-5.532954324491764	-5.532954324492882	-0.9711124930124648	0.03399944932265244	-0.7614162036304841	-0.728030932569298	3.692012463559964e-09	-2.609587516436727e-07	-2.202570929650414e-07	-4.066917226263454e-08	-2.374281380409183e-08	-3.404424648136629e-07	1.930408810196381e-08
1.04	-0.4896024870009587	-0.01967624023113851	0.5962850668665957	1.743690077606453	-0.3395509225702749	0.1127586309589624	-0.4362849990703622	1.470440732787903	1.470440732787939	0.0748877711179293	-0.1744161713083261	0.3876598834321145	0.2327368773127375	-0.08143695735112468	0.01614444089781041	0.1194912031588578	-0.2663254666054437	-0.010949500330876	-0.1261508929073634	-0.001495028734650528	-0.3904053725992648	-0.390405372599279	-0.03362493082232292	-0.001617817081783448	-0.07407419362269561	-0.05638471998905619	-0.2531497691116512	0.07922639456243276	-0.01763466437395812	-0.2767527223789513	0.0005202446713491697	-0.01647234911685342	0.2162217023890216	-35.18449006484902	23.15274536786173	-15.20984441048199	2.372889341328404	-543.1437537785523	-27.98600648659133	-0.02422448643221736	1.580516322021816	0.3137495583625839	2.000653573802463	-6.796690429733557	-0.2237524151379383	-1.389343852473912	0.01830109701632043	-5.53302021191299	-5.533020211912961	-0.9408493162044557	-0.00519073339884309	-0.7713286301862702	-0.7428945919531108	5.327955782854203e-09	-3.124098103882185e-07	-2.747567452726059e-07	-5.257984202925152e-08	-2.72823229994236e-08	-4.082917667941224e-07	2.381031513795865e-08
1.05	-0.4903379958120842	-0.01949898270625505	0.5975796649953842	1.740687838265746	-0.339670915557016	0.1114300057287996	-0.4362981680669075	1.46626067839169	1.466260678391721	0.07450326238341889	-0.1744309687519631	0.3868805167151251	0.2321369345013263	-0.06559813740094105	0.01932631093106308	0.1394064774270803	-0.3341392246849655	-0.0130340089122401	-0.1395973280415059	-0.00114672347540887	-0.4455760790615921	-0.4455760790615911	-0.04322197033637033	-0.001340354639472116	-0.08181201186901038	-0.06358017882301328	-0.2533971182028829	0.07934137542527024	-0.01761764722891399	-0.2751241146596293	-0.0001264175742327038	-0.01631993123291147	0.2163816885164177	-35.30413765091872	23.01668907991531	-15.08442592240173	2.246884765685017	-542.6634362593953	-27.89181262997031	-0.02426091627442966	1.595564940643948	0.3232797308040637	1.983666383018322	-6.77624211661985	-0.1984811253821819	-1.325773197124464	0.04190230619089014	-5.504687425964395	-5.504687425962006	-0.9609291838375826	0.04432645107751697	-0.7769528016605647	-0.7042243240373443	6.952757118943935e-09	-3.63949043078237e-07	-3.291750323883054e-07	-6.451223132148873e-08	-3.079566730431919e-08	-4.76015282015058e-07	2.827399075097371e-08
1.06	-0.4909131164019064	-0.0192893316800393	0.5990727562727889	1.737006956620296	-0.339811289838728	0.1099662201766441	-0.4363080925975896	1.461529798618339	1.461529798618369	0.07402442367140331	-0.1744429692276049	0.3860233829397235	0.2314657665425904	-0.04935931308561214	0.02262314116427095	0.1591898328827507	-0.40205392754681	-0.01502575932344125	-0.1531829573052705	-0.0008461355836297103	-0.5005704480267971	-0.500570448026781	-0.05249092644376355	-0.001058423475903478	-0.089627605307586	-0.07062974945378683	-0.2536444672942505	0.07945635628801463	-0.01760063008207433	-0.273495506940234	-0.0007730798198254409	-0.01616751334915048	0.2165416746436502	-35.42725136537842	22.87834878377946	-14.95534082963768	2.11315195936509	-542.2949319746716	-27.80807655232729	-0.02430037783061761	1.660517195050797	0.3367415983536783	1.974269811292069	-6.816879386198115	-0.2052007811053639	-1.417182678398292	0.008757623524737156	-5.497752712488523	-5.497752712488504	-0.8752326348736009	-0.004296989147302928	-0.7868836686383208	-0.713716951316308	6.726866838943931e-09	-3.9484402016798e-07	-3.463042659450769e-07	-7.191344428329799e-08	-3.415275480524295e-08	-4.941411913620595e-07	2.682123607433679e-08
1.07	-0.4913238158078025	-0.01904604902551286	0.6007628847359947	1.732646647501627	-0.3399711644600664	0.1083662893648592	-0.4363148659866106	1.456250188726456	1.456250188726452	0.07345420124860978	-0.1744521713629599	0.3850877981358428	0.2307248175033895	-0.03270853422792296	0.02606164939855135	0.1788005762962935	-0.4700055922185368	-0.0169394118138335	-0.1667726573701382	-0.0004803733544508294	-0.5552882875941644	-0.5552882875941411	-0.06154681582884731	-0.0007839962664650936	-0.09749183634890483	-0.07753846219771914	-0.2537956661459602	0.07959639240005847	-0.01754701934170455	-0.2715222392765142	-0.001430465629815484	-0.01600107580983325	0.2166911674989458	-35.52600015924329	22.71785607751935	-14.8092487569216	1.900854812023559	-541.6023066995451	-27.68194937031642	-0.02434302601121434	1.678162424414497	0.3516284688560621	1.949176539493733	-6.783965463153929	-0.1829214993998878	-1.325290468388725	0.05471085662582455	-5.449318151201403	-5.449318151200325	-0.9197889233053801	0.04291959035513977	-0.7865830119958844	-0.6760981294939349	6.402535515534886e-09	-4.246408985555805e-07	-3.614500392061605e-07	-7.907363722753126e-08	-3.750153077404055e-08	-5.096289301838512e-07	2.505377765888856e-08
